<?xml version="1.0" encoding="utf-8"?>
<!-- Generator: Adobe Illustrator 23.0.2, SVG Export Plug-In . SVG Version: 6.00 Build 0)  -->

<svg
      version="1.1"
      id="Слой_1"
      xodm="http://www.corel.com/coreldraw/odm/2003"
      xmlns="http://www.w3.org/2000/svg"
      xlink="http://www.w3.org/1999/xlink"
      x="0px"
      y="0px"
      viewBox="0 0 239.8 205.7"
      style="enable-background:new 0 0 239.8 205.7;"
      space="preserve"
    >
      <style type="text/css">
        .st0{fill:#FFFFFF;}
    </style>
      <g id="Слой_x0020_1">
        <g id="_2644531000736">
          <g>
            <path
              class="st0"
              d="M153.6,42.3c0,22.1-19.5,22.1-32.4,44.6c-0.2-25.1,18-37.7,18.8-38.2l-3.4-5.1c-0.8,0.5-16.6,11.3-20.6,32.9
             c-2-11.9-1.7-25.9,5-35.8c7.8-11.3,24.7-9.7,32.6-9.7V42.3L153.6,42.3z M153.6,88.9c-11.7,0-19.2-0.9-28.9,4.8
             c5.7-13.9,22-24.3,27.1-29.4C154.4,61.1,153.6,56,153.6,88.9z M113.4,91.4c1.2,4.2-1-2.6-15.5-2.6H86.5v-58
             c7,0,21.6-1.4,29.4,6.5C105.7,51,108.2,74.4,113.4,91.4z M120,12.5c14.2,0,21.9,12.2,20.8,12.2c-4.8,0.2-9.6,1.3-14.8,4
             c-8.6,5.7-3.9,4.2-12.3-0.2c-4.5-2.3-9-3.6-14.4-3.8C98.2,24.8,105.8,12.5,120,12.5L120,12.5z M148,24.7
             c-10.6-24.4-45.3-24.4-56,0c-15.6,0-11.7-8-11.7,67.2c0,4.1,3.9,3.1,17.6,3.1c14.6,0,17.3,9,23.1,9v0c0.1,0,0.7-0.4,0.8-0.4
             c10.1-10.1,20.9-8.7,35-8.7c4.4,0,3.1-0.1,3.1-67.2C159.7,23.5,153.7,24.8,148,24.7L148,24.7z"
            />
          </g>
          <path
            class="st0"
            d="M10.6,126.9h4.3l6.2,13.5l6.2-13.5h4.3V147h-4.2v-11.4L22.1,147h-2l-5.3-11.4V147h-4.2L10.6,126.9L10.6,126.9
         z M41.4,126.9h4.3l8,20.1h-4.5l-1.7-4.4h-8l-1.7,4.4h-4.5L41.4,126.9z M46.4,139.2l-2.8-7.6l-2.8,7.6H46.4z M56.1,126.9h4.4v8.7
         l7.6-8.7h5.2l-8.5,9.8l9.1,10.3h-5.2l-8.2-9.2v9.2h-4.4V126.9L56.1,126.9z M80.1,130.6h-5.9v-3.7h16.1v3.7h-5.9V147h-4.4V130.6z
          M96.1,126.9h4.3l8,20.1H104l-1.7-4.4h-8l-1.7,4.4H88C88,147,96.1,126.9,96.1,126.9z M101.1,139.2l-2.8-7.6l-2.8,7.6
         C95.4,139.2,101.1,139.2,101.1,139.2z M110.8,126.9h9.9c1.9,0,3.4,0.5,4.5,1.4c1.1,0.9,1.6,2.3,1.6,4.1c0,0.9-0.2,1.7-0.6,2.5
         s-1,1.3-1.7,1.7c1,0.4,1.7,0.9,2.2,1.7c0.5,0.7,0.7,1.7,0.7,2.9c0,1.2-0.3,2.3-0.8,3.1c-0.5,0.9-1.3,1.6-2.2,2s-2,0.7-3.1,0.7
         h-10.4V126.9L110.8,126.9z M119.9,135.1c0.8,0,1.4-0.2,1.8-0.6c0.4-0.4,0.7-1,0.7-1.8c0-0.9-0.2-1.6-0.6-1.9
         c-0.4-0.3-1.1-0.5-2-0.5h-4.5v4.8H119.9L119.9,135.1z M120.1,143.7c0.9,0,1.7-0.2,2.1-0.6c0.5-0.4,0.7-1,0.7-2
         c0-1-0.3-1.6-0.8-2.1c-0.5-0.4-1.3-0.6-2.3-0.6h-4.8v5.2L120.1,143.7L120.1,143.7z M140.1,147.4c-2.1,0-4-0.4-5.7-1.3
         s-2.9-2.1-3.8-3.6s-1.4-3.4-1.4-5.5s0.5-4,1.4-5.6c0.9-1.6,2.2-2.8,3.8-3.7c1.6-0.9,3.5-1.3,5.7-1.3c1.5,0,2.7,0.1,3.9,0.4
         c1.1,0.3,2.2,0.8,3.1,1.4v4.2c-0.8-0.7-1.8-1.2-2.9-1.5c-1.1-0.3-2.3-0.5-3.7-0.5c-1.3,0-2.4,0.3-3.5,0.8c-1,0.5-1.8,1.3-2.4,2.3
         c-0.6,1-0.9,2.1-0.9,3.4c0,1.3,0.3,2.5,0.8,3.5c0.5,1,1.3,1.7,2.3,2.3c1,0.5,2.1,0.8,3.5,0.8c1.2,0,2.2-0.2,3.1-0.6V139h-3.2v-3.2
         h7.5v9.7C145.7,146.8,143.2,147.4,140.1,147.4L140.1,147.4z M157.6,126.9h4.3l8,20.1h-4.5l-1.7-4.4h-8L154,147h-4.5L157.6,126.9
         L157.6,126.9z M162.5,139.2l-2.8-7.6l-2.8,7.6H162.5z M181,147.4c-2.1,0-4-0.4-5.7-1.3c-1.6-0.9-2.9-2.1-3.8-3.6
         c-0.9-1.6-1.4-3.4-1.4-5.5s0.5-4,1.4-5.6c0.9-1.6,2.2-2.8,3.8-3.7c1.6-0.9,3.5-1.3,5.7-1.3c2.8,0,5.1,0.6,7,1.9v4.1
         c-0.8-0.7-1.8-1.2-2.9-1.5c-1.1-0.3-2.3-0.5-3.7-0.5c-2.1,0-3.7,0.6-5,1.7c-1.2,1.2-1.8,2.7-1.8,4.7c0,2,0.6,3.6,1.8,4.8
         s2.9,1.7,4.9,1.7c1.4,0,2.7-0.2,3.8-0.5c1.1-0.3,2.1-0.9,3-1.6v4.1C186.4,146.8,184,147.4,181,147.4L181,147.4z M190.6,126.9h4.4
         v8.1h8.8v-8.1h4.4V147h-4.4v-8.4H195v8.4h-4.4V126.9z M218.6,126.9h4.3l8,20.1h-4.5l-1.7-4.4h-8L215,147h-4.5L218.6,126.9
         L218.6,126.9z M223.6,139.2l-2.8-7.6l-2.8,7.6H223.6z M36.5,156.1h4.7l5.5,14.3l5.5-14.3h4.6l-8,20.1h-4.3
         C44.5,176.2,36.5,156.1,36.5,156.1z M62.9,156.1h4.3l8,20.1h-4.5l-1.7-4.4h-8l-1.7,4.4h-4.5C54.8,176.2,62.9,156.1,62.9,156.1z
          M67.8,168.3l-2.8-7.6l-2.8,7.6H67.8z M87.6,156.1H92l6.2,13.5l6.2-13.5h4.3v20.1h-4.2v-11.4l-5.3,11.4h-2l-5.3-11.4v11.4h-4.2
         L87.6,156.1L87.6,156.1z M118.4,156.1h4.3l8,20.1h-4.5l-1.7-4.4h-8l-1.7,4.4h-4.5L118.4,156.1z M123.4,168.3l-2.8-7.6l-2.8,7.6
         C117.7,168.3,123.4,168.3,123.4,168.3z M133.1,156.1h4.4v8.7l7.6-8.7h5.2l-8.5,9.8l9.1,10.3h-5.2l-8.2-9.2v9.2h-4.4V156.1
         L133.1,156.1z M157.1,159.7h-5.9v-3.7h16.1v3.7h-5.9v16.4h-4.4V159.7z M173.1,156.1h4.3l8,20.1H181l-1.7-4.4h-8l-1.7,4.4h-4.5
         L173.1,156.1L173.1,156.1z M178.1,168.3l-2.8-7.6l-2.8,7.6H178.1z M187.9,156.1h9.9c1.9,0,3.4,0.5,4.5,1.4
         c1.1,0.9,1.6,2.3,1.6,4.1c0,0.9-0.2,1.7-0.6,2.5c-0.4,0.7-1,1.3-1.7,1.7c1,0.4,1.7,0.9,2.2,1.7c0.5,0.7,0.7,1.7,0.7,2.9
         c0,1.2-0.3,2.3-0.8,3.1c-0.5,0.9-1.3,1.6-2.2,2c-0.9,0.5-2,0.7-3.1,0.7h-10.4L187.9,156.1L187.9,156.1z M196.9,164.2
         c0.8,0,1.4-0.2,1.8-0.6c0.4-0.4,0.7-1,0.7-1.8c0-0.9-0.2-1.6-0.6-1.9c-0.4-0.3-1.1-0.5-2-0.5h-4.5v4.8H196.9L196.9,164.2z
          M197.1,172.8c0.9,0,1.7-0.2,2.1-0.6c0.5-0.4,0.7-1,0.7-2c0-1-0.3-1.6-0.8-2.1c-0.5-0.4-1.3-0.6-2.3-0.6h-4.8v5.2L197.1,172.8
         L197.1,172.8z M5.9,188.9H0v-3.7h16.1v3.7h-5.9v16.4H5.9C5.9,205.3,5.9,188.9,5.9,188.9z M21.9,185.2h4.3l8,20.1h-4.5l-1.7-4.4h-8
         l-1.7,4.4h-4.5L21.9,185.2z M26.9,197.5l-2.8-7.6l-2.8,7.6H26.9z M44.5,185.2h4.4v16.4h9.2v3.7H44.5L44.5,185.2L44.5,185.2z
          M60,185.2h4.4v20.1H60V185.2z M67.4,185.2h4.3l6.2,13.5l6.2-13.5h4.3v20.1h-4.2v-11.4l-5.3,11.4h-2l-5.3-11.4v11.4h-4.2
         L67.4,185.2L67.4,185.2z M91.4,185.2h4.4v20.1h-4.4V185.2z M108.3,185.2h4.7l5.5,14.3l5.5-14.3h4.6l-8,20.1h-4.3L108.3,185.2z
          M134.6,185.2h4.3l8,20.1h-4.5l-1.7-4.4h-8l-1.7,4.4h-4.5L134.6,185.2z M139.6,197.5l-2.8-7.6l-2.8,7.6
         C133.9,197.5,139.6,197.5,139.6,197.5z M148.4,202.4l9.8-13.5h-9.6v-3.7h15v2.9l-9.8,13.5h10.4v3.7h-15.8L148.4,202.4L148.4,202.4
         z M166.6,185.2h4.4v20.1h-4.4V185.2z M174,185.2h8.7c2.3,0,4.1,0.6,5.3,1.7c1.3,1.1,1.9,2.8,1.9,4.9c0,1.5-0.3,2.8-1,3.8
         c-0.7,1-1.7,1.8-2.9,2.3l3.8,7.4h-4.5l-3.5-6.8h-3.4v6.8H174L174,185.2L174,185.2z M181.9,194.8c1.1,0,2-0.2,2.6-0.7
         c0.6-0.5,1-1.2,1-2.3c0-1.1-0.3-1.9-0.9-2.3s-1.5-0.7-2.6-0.7h-3.6v6H181.9L181.9,194.8z M192.4,185.2h4.4v16.4h9.2v3.7h-13.6
         V185.2L192.4,185.2z M207.8,185.2h4.4v20.1h-4.4V185.2z M225.5,205.7c-2.1,0-4-0.4-5.7-1.3s-2.9-2.1-3.8-3.6
         c-0.9-1.6-1.4-3.4-1.4-5.5c0-2.1,0.5-4,1.4-5.6c0.9-1.6,2.2-2.8,3.8-3.7c1.6-0.9,3.5-1.3,5.7-1.3c1.5,0,2.7,0.1,3.9,0.4
         c1.1,0.3,2.2,0.8,3.1,1.4v4.2c-0.8-0.7-1.8-1.2-2.9-1.5c-1.1-0.3-2.3-0.5-3.7-0.5c-1.3,0-2.4,0.3-3.5,0.8c-1,0.5-1.8,1.3-2.4,2.3
         c-0.6,1-0.9,2.1-0.9,3.4c0,1.3,0.3,2.5,0.8,3.5c0.5,1,1.3,1.7,2.3,2.3c1,0.5,2.1,0.8,3.5,0.8c1.2,0,2.2-0.2,3.1-0.6v-3.9h-3.2
         v-3.2h7.5v9.7C231.1,205.1,228.6,205.7,225.5,205.7L225.5,205.7z M235.5,185.2h4.4v20.1h-4.4V185.2z M37.9,184.8h4.2l-2.3,5.7
         h-3.7L37.9,184.8z"
          />
        </g>
      </g>
    </svg>